# xmcd
#
# Track frame offsets:
#	150
#	23989
#	46952
#	76853
#	99637
#	119840
#	140727
#	160894
#	182317
#	208668
#	231065
#	255862
#	274547
#	299004
#	316613
#
# Disc length: 4461 seconds
#
# Revision: 0
# Processed by: cddbd v1.5.2PL0 Copyright (c) Steve Scherf et al.
# Submitted via: audiograbber 1.83.01
#
DISCID=cc116b0f
DTITLE=WOW - 2005 - Gospel 2005 [CD2)
DYEAR=2005
DGENRE=Gospel
TTITLE0=Can't Nobody (Live) - Smokie Norful
TTITLE1=Again I Say Rejoice - Israel and New Breed
TTITLE2=The Presence of the Lord - Byron Cage
TTITLE3=We Acknowledge You - Karen Clark-Sheard
TTITLE4=Suddenly (Feat. Vanessa Bell Armstrong) - New Birth Total Praise Choir
TTITLE5=Stronger - The Canton Spirituals (Feat. Paul Porter)
TTITLE6=I'm Going To Wait - Shirley Caesar (Feat. Caesar Singer and GGTCCC)
TTITLE7=I Belong To You - The Rance Allen Group
TTITLE8=He Lifted Me - Twinkie Clark
TTITLE9=Let Go and Let God - Keith Wonderboy Johnson
TTITLE10=Let Us All Go Back - Rickie Dillard and New G
TTITLE11=Glorious - Martha Munizzi
TTITLE12=Worship Expierence - William Murphy III
TTITLE13=Let It Rain - Bishop Paul S. Morton and The FGBCF Mass Choir
TTITLE14=Glory Hallelujah - Darrel Petties and SIP
EXTD=
EXTT0=
EXTT1=
EXTT2=
EXTT3=
EXTT4=
EXTT5=
EXTT6=
EXTT7=
EXTT8=
EXTT9=
EXTT10=
EXTT11=
EXTT12=
EXTT13=
EXTT14=
PLAYORDER=
